<?xml version="1.0" standalone="no"?>
<!DOCTYPE svg PUBLIC "-//W3C//DTD SVG 20010904//EN"
 "http://www.w3.org/TR/2001/REC-SVG-20010904/DTD/svg10.dtd">
<svg version="1.0" xmlns="http://www.w3.org/2000/svg"
 width="500.000000pt" height="500.000000pt" viewBox="0 0 500.000000 500.000000"
 preserveAspectRatio="xMidYMid meet">

<g transform="translate(0.000000,500.000000) scale(0.100000,-0.100000)"
fill="#000000" stroke="none">
<path d="M0 2500 l0 -2500 2500 0 2500 0 0 2500 0 2500 -2500 0 -2500 0 0
-2500z m2137 94 c3 -9 -5 -26 -21 -43 -32 -33 -77 -174 -48 -149 241 208 241
208 279 208 81 0 114 -91 54 -151 -33 -33 -58 -36 -102 -13 -29 15 -32 14 -65
-11 -20 -15 -33 -32 -31 -39 2 -6 21 -61 41 -123 21 -62 49 -129 62 -149 41
-61 33 -69 -76 -72 -69 -2 -100 1 -114 11 -11 8 -33 56 -51 112 -32 96 -33 98
-48 74 -25 -40 -40 -124 -27 -149 22 -42 0 -50 -135 -50 -145 0 -165 10 -116
57 24 24 38 59 86 227 50 177 55 203 44 229 -18 42 -4 47 139 47 102 0 124 -3
129 -16z m605 3 c7 -8 33 -80 57 -160 24 -81 47 -147 50 -146 3 0 58 65 121
145 63 80 127 151 142 159 40 22 206 21 215 -1 4 -10 -4 -25 -20 -40 -15 -14
-33 -47 -41 -77 -8 -28 -34 -117 -57 -197 -35 -122 -39 -150 -30 -174 18 -50
4 -56 -129 -56 -161 0 -174 6 -121 57 22 21 36 53 60 137 17 61 29 111 27 113
-2 2 -56 -62 -121 -142 -65 -80 -127 -150 -137 -156 -11 -6 -31 -8 -44 -5 -20
5 -28 23 -59 124 -56 182 -57 184 -60 180 -1 -2 -17 -54 -35 -116 -28 -100
-30 -118 -19 -144 10 -25 10 -31 -2 -39 -20 -13 -142 -7 -146 8 -2 6 9 24 25
40 41 39 136 372 126 438 -3 24 -3 48 1 54 10 17 180 14 197 -2z"/>
</g>
</svg>
