<?xml version="1.0" standalone="no"?>
<!DOCTYPE svg PUBLIC "-//W3C//DTD SVG 20010904//EN"
 "http://www.w3.org/TR/2001/REC-SVG-20010904/DTD/svg10.dtd">
<svg version="1.0" xmlns="http://www.w3.org/2000/svg"
 width="500.000000pt" height="500.000000pt" viewBox="0 0 500.000000 500.000000"
 preserveAspectRatio="xMidYMid meet">

<g transform="translate(0.000000,500.000000) scale(0.100000,-0.100000)"
fill="#000000" stroke="none">
<path d="M1871 2601 c-12 -8 -12 -14 -2 -38 11 -26 6 -52 -44 -229 -48 -168
-62 -203 -86 -227 -49 -47 -29 -57 116 -57 135 0 157 8 135 50 -13 25 2 109
27 149 15 24 16 22 48 -74 18 -56 40 -104 51 -112 14 -10 45 -13 114 -11 109
3 117 11 76 72 -13 20 -41 87 -62 149 -20 62 -39 117 -41 123 -2 7 11 24 31
39 33 25 36 26 65 11 44 -23 69 -20 102 13 60 60 27 151 -54 151 -38 0 -38 0
-279 -208 -29 -25 16 116 48 149 48 50 31 59 -108 59 -68 0 -129 -4 -137 -9z"/>
<path d="M2545 2599 c-4 -6 -4 -30 -1 -54 10 -66 -85 -399 -126 -438 -16 -16
-27 -34 -25 -40 4 -15 126 -21 146 -8 12 8 12 14 2 39 -11 26 -9 44 19 144 18
62 34 114 35 116 3 4 4 2 60 -180 31 -101 39 -119 59 -124 13 -3 33 -1 44 5
10 6 72 76 137 156 65 80 119 144 121 142 2 -2 -10 -52 -27 -113 -24 -84 -38
-116 -60 -137 -53 -51 -40 -57 121 -57 133 0 147 6 129 56 -9 24 -5 52 30 174
23 80 49 169 57 197 8 30 26 63 41 77 16 15 24 30 20 40 -9 22 -175 23 -215 1
-15 -8 -79 -79 -142 -159 -63 -80 -118 -145 -121 -145 -3 -1 -26 65 -50 146
-24 80 -50 152 -57 160 -17 16 -187 19 -197 2z"/>
</g>
</svg>
